<?xml version="1.0" encoding="utf-8"?>
<!-- Generator: Adobe Illustrator 23.0.1, SVG Export Plug-In . SVG Version: 6.00 Build 0)  -->
<svg version="1.1" id="Layer_1" xmlns="http://www.w3.org/2000/svg" xmlns:xlink="http://www.w3.org/1999/xlink" x="0px" y="0px"
	 width="40px" height="40px" viewBox="0 0 40 40" style="enable-background:new 0 0 40 40;" xml:space="preserve">
<style type="text/css">
	.st0{fill:#215400;}
	.st1{fill:#4AD102;}
	.st2{fill:#490F0F;}
	.st3{fill:#D20101;}
</style>
<path class="st0" d="M22.9,8c1.7-1.9,3.4-3.9,5.2-5.8c0.5-0.6,1.4-0.8,2.1-0.5c0.3,0.2,0.7,0.1,1-0.1c0.4-0.3,1-0.3,1.3,0.1
	c0.9,0.8,1.9,1.7,2.8,2.5c0.4,0.3,0.5,0.9,0.2,1.4c-0.2,0.2-0.2,0.6-0.1,0.8c0.4,0.8,0.2,1.7-0.4,2.3c-0.5,0.6,0.9-1.2,0.4-0.6
	c-0.3,0.2-0.3,0.5-0.1,0.8c0,0,0.1,0.1,0.1,0.1c0.7,0.8,1.3,1.6,2,2.5c0.4,0.5,0.8,0.9,1.1,1.4c0.3,0.5,0.2,1.1-0.3,1.5
	c-0.6,0.3-2.8,2.3-3.1,1.9c-1.8-2.2-0.6-0.8-1.9-2.3c-0.2-0.2-0.3-0.5-0.7-0.4c-0.1-0.1-0.2-0.2-0.2-0.3c-0.3-0.4-0.5-0.5-0.9-0.1
	c-0.2,0.3-0.4,0.5-0.7,0.8c-0.5-0.1-0.6,0.5-1,0.6c-2.3-2.1-4.7-4.2-7-6.2C22.8,8.2,22.8,8.1,22.9,8z M31.1,4.2
	c-0.1-0.1-0.3-0.1-0.4,0.1c-1.1,1.3-2.3,2.6-3.4,3.9c-0.1,0.1-0.2,0.3,0,0.5c0.2,0.2,0.3,0,0.5-0.1C28.9,7.3,30,6,31.1,4.8
	c0,0,0.1-0.1,0.1-0.1C31.3,4.5,31.3,4.3,31.1,4.2z M32.2,5.1c-0.1-0.1-0.3,0-0.4,0.1c-0.3,0.4-0.6,0.7-0.9,1.1
	c-0.8,0.9-1.6,1.8-2.4,2.7c-0.1,0.2-0.3,0.3-0.1,0.5c0.2,0.2,0.4,0.1,0.5-0.1c1.1-1.3,2.2-2.5,3.3-3.8c0,0,0.1-0.1,0.1-0.1
	C32.4,5.4,32.3,5.2,32.2,5.1L32.2,5.1z M33.3,6.1c-0.1-0.1-0.3,0-0.4,0.1c-1.2,1.3-2.3,2.6-3.5,3.9c-0.1,0.2-0.2,0.3,0,0.4
	c0.3,0.2,0.4,0,0.6-0.2c0.8-0.8,1.5-1.7,2.3-2.5c0.4-0.4,0.7-0.8,1.1-1.2C33.4,6.3,33.4,6.2,33.3,6.1L33.3,6.1z M29,2.4
	c-0.1-0.1-0.3-0.1-0.4,0.1c0,0,0,0,0,0c-0.4,0.4-0.8,0.9-1.2,1.3c-0.7,0.8-1.4,1.6-2.1,2.4c-0.1,0.1-0.3,0.3-0.1,0.5
	c0.2,0.2,0.4,0.1,0.5-0.1c1.1-1.2,2.2-2.5,3.3-3.7c0,0,0.1-0.1,0.1-0.1C29.2,2.6,29.1,2.4,29,2.4L29,2.4z M30.1,3.3
	c-0.2-0.1-0.3,0-0.5,0.2c-1.1,1.2-2.2,2.4-3.3,3.7c-0.2,0.1-0.2,0.4-0.1,0.6c0.2,0.2,0.3,0.1,0.4-0.1c1.1-1.2,2.2-2.5,3.3-3.7
	c0,0,0.1-0.1,0.1-0.1C30.1,3.6,30.3,3.4,30.1,3.3L30.1,3.3z"/>
<path class="st1" d="M32.6,13.5c-0.1-0.1-0.2-0.2-0.2-0.3c-0.3-0.4-0.5-0.5-0.9-0.1c-0.2,0.3-0.4,0.5-0.7,0.8
	C31.6,14.7,31.6,14.7,32.6,13.5z"/>
<path class="st1" d="M31.2,4.7c0.1-0.2,0.2-0.3,0-0.5c-0.1-0.1-0.3-0.1-0.4,0.1c-1.1,1.3-2.3,2.6-3.4,3.9c-0.1,0.1-0.2,0.3,0,0.5
	c0.2,0.2,0.3,0,0.5-0.1C28.9,7.3,30,6,31.1,4.8C31.1,4.7,31.2,4.7,31.2,4.7z"/>
<path class="st1" d="M32.3,5.5c0.1-0.1,0-0.3-0.1-0.4c-0.1-0.1-0.3,0-0.4,0.1c-0.3,0.4-0.6,0.7-0.9,1.1c-0.8,0.9-1.6,1.8-2.4,2.7
	c-0.1,0.2-0.3,0.3-0.1,0.5c0.2,0.2,0.4,0.1,0.5-0.1c1.1-1.3,2.2-2.5,3.3-3.8C32.2,5.6,32.3,5.6,32.3,5.5z"/>
<path class="st1" d="M33.4,6.5c0.1-0.2,0.1-0.3,0-0.5c-0.1-0.1-0.3,0-0.4,0.1c-1.2,1.3-2.3,2.6-3.5,3.9c-0.1,0.2-0.2,0.3,0,0.4
	c0.3,0.2,0.4,0,0.6-0.2c0.8-0.8,1.5-1.7,2.3-2.5C32.7,7.3,33,6.9,33.4,6.5z"/>
<path class="st1" d="M29.1,2.8c0.1-0.1,0-0.3-0.1-0.4c-0.1-0.1-0.3-0.1-0.4,0.1c0,0,0,0,0,0c-0.4,0.4-0.8,0.9-1.2,1.3
	c-0.7,0.8-1.4,1.6-2.1,2.4c-0.1,0.1-0.3,0.3-0.1,0.5c0.2,0.2,0.4,0.1,0.5-0.1c1.1-1.2,2.2-2.5,3.3-3.7C29.1,2.8,29.1,2.8,29.1,2.8z"
	/>
<path class="st1" d="M30.1,3.8c0.1-0.2,0.2-0.3,0-0.5c-0.2-0.1-0.3,0-0.5,0.2c-1.1,1.2-2.2,2.4-3.3,3.7c-0.2,0.1-0.2,0.4-0.1,0.6
	c0.2,0.2,0.3,0.1,0.4-0.1c1.1-1.2,2.2-2.5,3.3-3.7C30,3.8,30.1,3.8,30.1,3.8z"/>
<path class="st2" d="M22.6,9.5l5.9,5.2c-0.3,0.5-0.6,1-0.9,1.5c-3,4.9-5.4,10.1-7.1,15.6L17,28.7c-3.4-3.1-6.9-6.1-10.4-9.2
	c5.5-2.4,10.7-5.6,15.3-9.4c0.2-0.1,0.3-0.3,0.4-0.4C22.5,9.7,22.6,9.6,22.6,9.5 M22.8,8.3c-0.6,0.2-1,0.7-1.4,1.1
	c-4.8,3.9-10.1,7.1-15.8,9.5c-0.6,0.3-0.7,0.4-0.2,0.9c5,4.4,10,8.9,15,13.3c0.3,0.2,0.4,0.4,0.5,0.4c0.1,0,0.2-0.2,0.3-0.6
	c1.6-5.7,4-11.1,7.2-16.1c0.5-0.7,0.9-1.5,1.3-2.2C27.5,12.5,25.1,10.4,22.8,8.3L22.8,8.3z"/>
<path class="st2" d="M22.9,8c1.7-1.9,3.4-3.9,5.2-5.8c0.5-0.6,1.4-0.8,2.1-0.5c0.3,0.2,0.7,0.1,1-0.1c0.4-0.3,1-0.3,1.3,0.1
	c0.9,0.8,1.9,1.7,2.8,2.5c0.4,0.3,0.5,0.9,0.2,1.4c-0.2,0.2-0.2,0.6-0.1,0.8c0.4,0.8,0.2,1.7-0.4,2.3c-0.5,0.6,0.9-1.2,0.4-0.6
	c-0.3,0.2-0.3,0.5-0.1,0.8c0,0,0.1,0.1,0.1,0.1c0.7,0.8,1.3,1.6,2,2.5c0.4,0.5,0.8,0.9,1.1,1.4c0.3,0.5,0.2,1.1-0.3,1.5
	c-0.6,0.3-2.8,2.3-3.1,1.9c-1.8-2.2-0.6-0.8-1.9-2.3c-0.2-0.2-0.3-0.5-0.7-0.4c-0.1-0.1-0.2-0.2-0.2-0.3c-0.3-0.4-0.5-0.5-0.9-0.1
	c-0.2,0.3-0.4,0.5-0.7,0.8c-0.5-0.1-0.6,0.5-1,0.6c-2.3-2.1-4.7-4.2-7-6.2C22.8,8.2,22.8,8.1,22.9,8z M31.1,4.2
	c-0.1-0.1-0.3-0.1-0.4,0.1c-1.1,1.3-2.3,2.6-3.4,3.9c-0.1,0.1-0.2,0.3,0,0.5c0.2,0.2,0.3,0,0.5-0.1C28.9,7.3,30,6,31.1,4.8
	c0,0,0.1-0.1,0.1-0.1C31.3,4.5,31.3,4.3,31.1,4.2z M32.2,5.1c-0.1-0.1-0.3,0-0.4,0.1c-0.3,0.4-0.6,0.7-0.9,1.1
	c-0.8,0.9-1.6,1.8-2.4,2.7c-0.1,0.2-0.3,0.3-0.1,0.5c0.2,0.2,0.4,0.1,0.5-0.1c1.1-1.3,2.2-2.5,3.3-3.8c0,0,0.1-0.1,0.1-0.1
	C32.4,5.4,32.3,5.2,32.2,5.1L32.2,5.1z M33.3,6.1c-0.1-0.1-0.3,0-0.4,0.1c-1.2,1.3-2.3,2.6-3.5,3.9c-0.1,0.2-0.2,0.3,0,0.4
	c0.3,0.2,0.4,0,0.6-0.2c0.8-0.8,1.5-1.7,2.3-2.5c0.4-0.4,0.7-0.8,1.1-1.2C33.4,6.3,33.4,6.2,33.3,6.1L33.3,6.1z M29,2.4
	c-0.1-0.1-0.3-0.1-0.4,0.1c0,0,0,0,0,0c-0.4,0.4-0.8,0.9-1.2,1.3c-0.7,0.8-1.4,1.6-2.1,2.4c-0.1,0.1-0.3,0.3-0.1,0.5
	c0.2,0.2,0.4,0.1,0.5-0.1c1.1-1.2,2.2-2.5,3.3-3.7c0,0,0.1-0.1,0.1-0.1C29.2,2.6,29.1,2.4,29,2.4L29,2.4z M30.1,3.3
	c-0.2-0.1-0.3,0-0.5,0.2c-1.1,1.2-2.2,2.4-3.3,3.7c-0.2,0.1-0.2,0.4-0.1,0.6c0.2,0.2,0.3,0.1,0.4-0.1c1.1-1.2,2.2-2.5,3.3-3.7
	c0,0,0.1-0.1,0.1-0.1C30.1,3.6,30.3,3.4,30.1,3.3L30.1,3.3z"/>
<path class="st3" d="M32.6,13.5c-0.1-0.1-0.2-0.2-0.2-0.3c-0.3-0.4-0.5-0.5-0.9-0.1c-0.2,0.3-0.4,0.5-0.7,0.8
	C31.6,14.7,31.6,14.7,32.6,13.5z"/>
<path class="st3" d="M31.2,4.7c0.1-0.2,0.2-0.3,0-0.5c-0.1-0.1-0.3-0.1-0.4,0.1c-1.1,1.3-2.3,2.6-3.4,3.9c-0.1,0.1-0.2,0.3,0,0.5
	c0.2,0.2,0.3,0,0.5-0.1C28.9,7.3,30,6,31.1,4.8C31.1,4.7,31.2,4.7,31.2,4.7z"/>
<path class="st3" d="M32.3,5.5c0.1-0.1,0-0.3-0.1-0.4c-0.1-0.1-0.3,0-0.4,0.1c-0.3,0.4-0.6,0.7-0.9,1.1c-0.8,0.9-1.6,1.8-2.4,2.7
	c-0.1,0.2-0.3,0.3-0.1,0.5c0.2,0.2,0.4,0.1,0.5-0.1c1.1-1.3,2.2-2.5,3.3-3.8C32.2,5.6,32.3,5.6,32.3,5.5z"/>
<path class="st3" d="M33.4,6.5c0.1-0.2,0.1-0.3,0-0.5c-0.1-0.1-0.3,0-0.4,0.1c-1.2,1.3-2.3,2.6-3.5,3.9c-0.1,0.2-0.2,0.3,0,0.4
	c0.3,0.2,0.4,0,0.6-0.2c0.8-0.8,1.5-1.7,2.3-2.5C32.7,7.3,33,6.9,33.4,6.5z"/>
<path class="st3" d="M29.1,2.8c0.1-0.1,0-0.3-0.1-0.4c-0.1-0.1-0.3-0.1-0.4,0.1c0,0,0,0,0,0c-0.4,0.4-0.8,0.9-1.2,1.3
	c-0.7,0.8-1.4,1.6-2.1,2.4c-0.1,0.1-0.3,0.3-0.1,0.5c0.2,0.2,0.4,0.1,0.5-0.1c1.1-1.2,2.2-2.5,3.3-3.7C29.1,2.8,29.1,2.8,29.1,2.8z"
	/>
<path class="st3" d="M30.1,3.8c0.1-0.2,0.2-0.3,0-0.5c-0.2-0.1-0.3,0-0.5,0.2c-1.1,1.2-2.2,2.4-3.3,3.7c-0.2,0.1-0.2,0.4-0.1,0.6
	c0.2,0.2,0.3,0.1,0.4-0.1c1.1-1.2,2.2-2.5,3.3-3.7C30,3.8,30.1,3.8,30.1,3.8z"/>
<rect x="17" y="15.8" transform="matrix(0.7071 -0.7071 0.7071 0.7071 -8.8407 18.6565)" class="st3" width="2.3" height="8.4"/>
<rect x="13.9" y="18.9" transform="matrix(0.7071 -0.7071 0.7071 0.7071 -8.8407 18.6565)" class="st3" width="8.4" height="2.3"/>
</svg>
