<?xml version="1.0" encoding="utf-8"?>
<!-- Generator: Adobe Illustrator 23.0.1, SVG Export Plug-In . SVG Version: 6.00 Build 0)  -->
<svg version="1.1" id="Layer_1" xmlns="http://www.w3.org/2000/svg" xmlns:xlink="http://www.w3.org/1999/xlink" x="0px" y="0px"
	 width="40px" height="40px" viewBox="0 0 40 40" style="enable-background:new 0 0 40 40;" xml:space="preserve">
<style type="text/css">
	.st0{fill:#4AD102;}
	.st1{fill:#215400;}
</style>
<rect x="15" y="17.8" transform="matrix(0.7071 -0.7071 0.7071 0.7071 -10.2106 17.8139)" class="st0" width="2.8" height="6.9"/>
<rect x="15.1" y="18" transform="matrix(0.7071 -0.7071 0.7071 0.7071 -7.5507 20.6083)" class="st0" width="12" height="2.8"/>
<path class="st1" d="M19.6,6.7c3.1,3.5,6.1,6.9,9.2,10.4l3.1,3.5c-5.5,1.6-10.8,4-15.6,7.1c-0.5,0.3-1,0.6-1.5,0.9l-5.2-5.9
	c0.1-0.1,0.1-0.1,0.2-0.2c0.1-0.1,0.3-0.3,0.4-0.4C14,17.3,17.2,12.2,19.6,6.7 M19.4,5.1c-0.2,0-0.3,0.2-0.4,0.5
	c-2.4,5.7-5.6,11-9.5,15.8c-0.4,0.5-0.9,0.8-1.1,1.4c2.1,2.3,4.2,4.7,6.2,7c0.7-0.4,1.5-0.9,2.2-1.3c5-3.1,10.5-5.5,16.1-7.2
	c0.7-0.2,0.7-0.3,0.2-0.9c-4.4-5-8.9-10-13.3-15C19.6,5.2,19.5,5.1,19.4,5.1L19.4,5.1z"/>
<path class="st1" d="M8.4,22.8c2.1,2.3,4.2,4.7,6.2,7c-0.1,0.4-0.7,0.5-0.6,1c-0.2,0.2-0.5,0.5-0.8,0.7c-0.5,0.3-0.4,0.6,0.1,0.9
	c0.1,0.1,0.2,0.1,0.3,0.2c-0.1,0.4,0.2,0.5,0.4,0.7c1.6,1.3,0.1,0.1,2.3,1.9c0.4,0.3-1.6,2.5-1.9,3.1c-0.3,0.5-1,0.6-1.5,0.3
	c-0.5-0.3-0.9-0.7-1.4-1.1c-0.8-0.7-1.7-1.3-2.5-2c-0.2-0.2-0.6-0.3-0.8-0.1c0,0-0.1,0.1-0.1,0.1c-0.5,0.5,1.2-0.9,0.6-0.4
	c-0.6,0.6-1.5,0.8-2.3,0.4c-0.3-0.1-0.6-0.1-0.8,0.1c-0.4,0.3-1,0.2-1.4-0.2c-0.8-0.9-1.7-1.9-2.5-2.8c-0.4-0.3-0.4-0.9-0.1-1.3
	c0.2-0.3,0.3-0.7,0.1-1c-0.3-0.7-0.1-1.6,0.5-2.1c1.9-1.7,3.9-3.5,5.8-5.2C8.1,22.9,8.3,22.8,8.4,22.8z M4.7,31.2c0,0,0.1,0,0.1-0.1
	c1.2-1.1,2.5-2.2,3.7-3.3c0.1-0.1,0.3-0.3,0.1-0.5c-0.2-0.2-0.4-0.1-0.5,0c-1.3,1.1-2.6,2.2-3.9,3.4c-0.1,0.1-0.2,0.3-0.1,0.4
	C4.4,31.4,4.5,31.3,4.7,31.2z M5.6,32.3c0,0,0.1-0.1,0.1-0.1C7,31.1,8.2,30,9.5,28.9c0.2-0.1,0.3-0.3,0.1-0.5
	c-0.2-0.2-0.4,0-0.5,0.1c-0.9,0.8-1.8,1.6-2.7,2.4c-0.4,0.3-0.7,0.6-1.1,0.9c-0.1,0.1-0.2,0.3-0.1,0.4C5.3,32.3,5.4,32.4,5.6,32.3
	L5.6,32.3z M6.6,33.4C7,33,7.4,32.7,7.8,32.3c0.9-0.7,1.7-1.5,2.5-2.3c0.2-0.2,0.3-0.3,0.2-0.6c-0.1-0.2-0.3-0.2-0.4,0
	c-1.3,1.2-2.6,2.3-3.9,3.5C6.1,33,6,33.2,6.1,33.3C6.2,33.5,6.4,33.5,6.6,33.4L6.6,33.4z M2.8,29.1c0,0,0.1-0.1,0.1-0.1
	c1.2-1.1,2.5-2.2,3.7-3.3c0.2-0.2,0.3-0.3,0.1-0.5c-0.2-0.2-0.4,0-0.5,0.1c-0.8,0.7-1.6,1.4-2.4,2.1c-0.5,0.4-0.9,0.8-1.3,1.2
	c-0.1,0.1-0.2,0.3-0.1,0.4c0,0,0,0,0,0C2.5,29.2,2.7,29.2,2.8,29.1L2.8,29.1z M3.8,30.1c0,0,0.1,0,0.1-0.1c1.2-1.1,2.5-2.2,3.7-3.3
	c0.1-0.1,0.3-0.3,0.1-0.4c-0.2-0.1-0.4-0.1-0.6,0.1c-1.2,1.1-2.4,2.2-3.7,3.3c-0.1,0.1-0.3,0.3-0.2,0.5C3.5,30.3,3.6,30.2,3.8,30.1
	L3.8,30.1z"/>
<path class="st0" d="M13.5,32.6c-0.1-0.1-0.2-0.2-0.3-0.2c-0.4-0.3-0.5-0.5-0.1-0.9c0.3-0.2,0.5-0.4,0.8-0.7
	C14.8,31.6,14.8,31.6,13.5,32.6z"/>
<path class="st0" d="M4.7,31.2c-0.2,0.1-0.3,0.2-0.5,0c-0.1-0.1-0.1-0.3,0.1-0.4c1.3-1.1,2.6-2.3,3.9-3.4c0.1-0.1,0.3-0.2,0.5,0
	c0.2,0.2,0,0.3-0.1,0.5c-1.2,1.1-2.5,2.2-3.7,3.3C4.8,31.2,4.8,31.2,4.7,31.2z"/>
<path class="st0" d="M5.6,32.3c-0.1,0.1-0.3,0-0.4-0.1c-0.1-0.1,0-0.3,0.1-0.4c0.4-0.3,0.7-0.6,1.1-0.9c0.9-0.8,1.8-1.6,2.7-2.4
	c0.2-0.1,0.3-0.3,0.5-0.1c0.2,0.2,0.1,0.4-0.1,0.5C8.2,30,7,31.1,5.7,32.2C5.7,32.3,5.6,32.3,5.6,32.3z"/>
<path class="st0" d="M6.6,33.4c-0.2,0.1-0.3,0.1-0.5,0c-0.1-0.1,0-0.3,0.1-0.4c1.3-1.2,2.6-2.3,3.9-3.5c0.2-0.1,0.3-0.2,0.4,0
	c0.2,0.3,0,0.4-0.2,0.6c-0.8,0.8-1.7,1.5-2.5,2.3C7.4,32.7,7,33,6.6,33.4z"/>
<path class="st0" d="M2.8,29.1c-0.1,0.1-0.3,0-0.4-0.1c-0.1-0.1-0.1-0.3,0.1-0.4c0,0,0,0,0,0c0.4-0.4,0.9-0.8,1.3-1.2
	c0.8-0.7,1.6-1.4,2.4-2.1c0.1-0.1,0.3-0.3,0.5-0.1c0.2,0.2,0.1,0.4-0.1,0.5c-1.2,1.1-2.5,2.2-3.7,3.3C2.9,29.1,2.8,29.1,2.8,29.1z"
	/>
<path class="st0" d="M3.8,30.1c-0.2,0.1-0.3,0.2-0.5,0c-0.1-0.2,0-0.3,0.2-0.5c1.2-1.1,2.4-2.2,3.7-3.3c0.1-0.2,0.4-0.2,0.6-0.1
	c0.2,0.2,0.1,0.3-0.1,0.4c-1.2,1.1-2.5,2.2-3.7,3.3C3.9,30.1,3.8,30.1,3.8,30.1z"/>
<path class="st1" d="M8.4,22.8c2.1,2.3,4.2,4.7,6.2,7c-0.1,0.4-0.7,0.5-0.6,1c-0.2,0.2-0.5,0.5-0.8,0.7c-0.5,0.3-0.4,0.6,0.1,0.9
	c0.1,0.1,0.2,0.1,0.3,0.2c-0.1,0.4,0.2,0.5,0.4,0.7c1.6,1.3,0.1,0.1,2.3,1.9c0.4,0.3-1.6,2.5-1.9,3.1c-0.3,0.5-1,0.6-1.5,0.3
	c-0.5-0.3-0.9-0.7-1.4-1.1c-0.8-0.7-1.7-1.3-2.5-2c-0.2-0.2-0.6-0.3-0.8-0.1c0,0-0.1,0.1-0.1,0.1c-0.5,0.5,1.2-0.9,0.6-0.4
	c-0.6,0.6-1.5,0.8-2.3,0.4c-0.3-0.1-0.6-0.1-0.8,0.1c-0.4,0.3-1,0.2-1.4-0.2c-0.8-0.9-1.7-1.9-2.5-2.8c-0.4-0.3-0.4-0.9-0.1-1.3
	c0.2-0.3,0.3-0.7,0.1-1c-0.3-0.7-0.1-1.6,0.5-2.1c1.9-1.7,3.9-3.5,5.8-5.2C8.1,22.9,8.3,22.8,8.4,22.8z M4.7,31.2c0,0,0.1,0,0.1-0.1
	c1.2-1.1,2.5-2.2,3.7-3.3c0.1-0.1,0.3-0.3,0.1-0.5c-0.2-0.2-0.4-0.1-0.5,0c-1.3,1.1-2.6,2.2-3.9,3.4c-0.1,0.1-0.2,0.3-0.1,0.4
	C4.4,31.4,4.5,31.3,4.7,31.2z M5.6,32.3c0,0,0.1-0.1,0.1-0.1C7,31.1,8.2,30,9.5,28.9c0.2-0.1,0.3-0.3,0.1-0.5
	c-0.2-0.2-0.4,0-0.5,0.1c-0.9,0.8-1.8,1.6-2.7,2.4c-0.4,0.3-0.7,0.6-1.1,0.9c-0.1,0.1-0.2,0.3-0.1,0.4C5.3,32.3,5.4,32.4,5.6,32.3
	L5.6,32.3z M6.6,33.4C7,33,7.4,32.7,7.8,32.3c0.9-0.7,1.7-1.5,2.5-2.3c0.2-0.2,0.3-0.3,0.2-0.6c-0.1-0.2-0.3-0.2-0.4,0
	c-1.3,1.2-2.6,2.3-3.9,3.5C6.1,33,6,33.2,6.1,33.3C6.2,33.5,6.4,33.5,6.6,33.4L6.6,33.4z M2.8,29.1c0,0,0.1-0.1,0.1-0.1
	c1.2-1.1,2.5-2.2,3.7-3.3c0.2-0.2,0.3-0.3,0.1-0.5c-0.2-0.2-0.4,0-0.5,0.1c-0.8,0.7-1.6,1.4-2.4,2.1c-0.5,0.4-0.9,0.8-1.3,1.2
	c-0.1,0.1-0.2,0.3-0.1,0.4c0,0,0,0,0,0C2.5,29.2,2.7,29.2,2.8,29.1L2.8,29.1z M3.8,30.1c0,0,0.1,0,0.1-0.1c1.2-1.1,2.5-2.2,3.7-3.3
	c0.1-0.1,0.3-0.3,0.1-0.4c-0.2-0.1-0.4-0.1-0.6,0.1c-1.2,1.1-2.4,2.2-3.7,3.3c-0.1,0.1-0.3,0.3-0.2,0.5C3.5,30.3,3.6,30.2,3.8,30.1
	L3.8,30.1z"/>
<path class="st0" d="M13.5,32.6c-0.1-0.1-0.2-0.2-0.3-0.2c-0.4-0.3-0.5-0.5-0.1-0.9c0.3-0.2,0.5-0.4,0.8-0.7
	C14.8,31.6,14.8,31.6,13.5,32.6z"/>
<path class="st0" d="M4.7,31.2c-0.2,0.1-0.3,0.2-0.5,0c-0.1-0.1-0.1-0.3,0.1-0.4c1.3-1.1,2.6-2.3,3.9-3.4c0.1-0.1,0.3-0.2,0.5,0
	c0.2,0.2,0,0.3-0.1,0.5c-1.2,1.1-2.5,2.2-3.7,3.3C4.8,31.2,4.8,31.2,4.7,31.2z"/>
<path class="st0" d="M5.6,32.3c-0.1,0.1-0.3,0-0.4-0.1c-0.1-0.1,0-0.3,0.1-0.4c0.4-0.3,0.7-0.6,1.1-0.9c0.9-0.8,1.8-1.6,2.7-2.4
	c0.2-0.1,0.3-0.3,0.5-0.1c0.2,0.2,0.1,0.4-0.1,0.5C8.2,30,7,31.1,5.7,32.2C5.7,32.3,5.6,32.3,5.6,32.3z"/>
<path class="st0" d="M6.6,33.4c-0.2,0.1-0.3,0.1-0.5,0c-0.1-0.1,0-0.3,0.1-0.4c1.3-1.2,2.6-2.3,3.9-3.5c0.2-0.1,0.3-0.2,0.4,0
	c0.2,0.3,0,0.4-0.2,0.6c-0.8,0.8-1.7,1.5-2.5,2.3C7.4,32.7,7,33,6.6,33.4z"/>
<path class="st0" d="M2.8,29.1c-0.1,0.1-0.3,0-0.4-0.1c-0.1-0.1-0.1-0.3,0.1-0.4c0,0,0,0,0,0c0.4-0.4,0.9-0.8,1.3-1.2
	c0.8-0.7,1.6-1.4,2.4-2.1c0.1-0.1,0.3-0.3,0.5-0.1c0.2,0.2,0.1,0.4-0.1,0.5c-1.2,1.1-2.5,2.2-3.7,3.3C2.9,29.1,2.8,29.1,2.8,29.1z"
	/>
<path class="st0" d="M3.8,30.1c-0.2,0.1-0.3,0.2-0.5,0c-0.1-0.2,0-0.3,0.2-0.5c1.2-1.1,2.4-2.2,3.7-3.3c0.1-0.2,0.4-0.2,0.6-0.1
	c0.2,0.2,0.1,0.3-0.1,0.4c-1.2,1.1-2.5,2.2-3.7,3.3C3.9,30.1,3.8,30.1,3.8,30.1z"/>
</svg>
